<svg width="573" height="75" viewBox="0 0 573 75" fill="none" xmlns="http://www.w3.org/2000/svg">
<path d="M0.321023 73V0.272725H15.6974V30.2798H46.9119V0.272725H62.2528V73H46.9119V42.9574H15.6974V73H0.321023ZM99.2912 74.0653C93.7751 74.0653 89.0047 72.8935 84.9801 70.5497C80.9792 68.1823 77.8897 64.8916 75.7116 60.6776C73.5336 56.4399 72.4446 51.5275 72.4446 45.9403C72.4446 40.3059 73.5336 35.3816 75.7116 31.1676C77.8897 26.9299 80.9792 23.6392 84.9801 21.2955C89.0047 18.928 93.7751 17.7443 99.2912 17.7443C104.807 17.7443 109.566 18.928 113.567 21.2955C117.591 23.6392 120.693 26.9299 122.871 31.1676C125.049 35.3816 126.138 40.3059 126.138 45.9403C126.138 51.5275 125.049 56.4399 122.871 60.6776C120.693 64.8916 117.591 68.1823 113.567 70.5497C109.566 72.8935 104.807 74.0653 99.2912 74.0653ZM99.3622 62.3466C101.872 62.3466 103.967 61.6364 105.648 60.2159C107.329 58.7718 108.595 56.8068 109.447 54.321C110.323 51.8352 110.761 49.0062 110.761 45.8338C110.761 42.6615 110.323 39.8324 109.447 37.3466C108.595 34.8608 107.329 32.8958 105.648 31.4517C103.967 30.0076 101.872 29.2855 99.3622 29.2855C96.8291 29.2855 94.6984 30.0076 92.9702 31.4517C91.2656 32.8958 89.9754 34.8608 89.0994 37.3466C88.2472 39.8324 87.821 42.6615 87.821 45.8338C87.821 49.0062 88.2472 51.8352 89.0994 54.321C89.9754 56.8068 91.2656 58.7718 92.9702 60.2159C94.6984 61.6364 96.8291 62.3466 99.3622 62.3466ZM135.974 73V18.4545H150.392V28.0781H151.031C152.168 24.8821 154.062 22.3608 156.713 20.5142C159.365 18.6676 162.537 17.7443 166.23 17.7443C169.971 17.7443 173.155 18.6795 175.783 20.5497C178.411 22.3963 180.162 24.9058 181.038 28.0781H181.607C182.719 24.9531 184.732 22.4555 187.643 20.5852C190.579 18.6913 194.047 17.7443 198.048 17.7443C203.138 17.7443 207.269 19.366 210.442 22.6094C213.638 25.8291 215.236 30.3982 215.236 36.3168V73H200.143V39.2997C200.143 36.2694 199.339 33.9967 197.729 32.4815C196.119 30.9664 194.107 30.2088 191.692 30.2088C188.946 30.2088 186.803 31.0848 185.264 32.8366C183.725 34.5649 182.956 36.8494 182.956 39.6903V73H168.29V38.9801C168.29 36.3049 167.52 34.1742 165.982 32.5881C164.466 31.0019 162.466 30.2088 159.98 30.2088C158.299 30.2088 156.784 30.6349 155.435 31.4872C154.109 32.3158 153.055 33.4877 152.274 35.0028C151.493 36.4943 151.102 38.2462 151.102 40.2585V73H135.974ZM252.043 74.0653C246.433 74.0653 241.603 72.929 237.555 70.6562C233.53 68.3598 230.429 65.1165 228.251 60.9261C226.073 56.7121 224.984 51.7287 224.984 45.9759C224.984 40.3651 226.073 35.4408 228.251 31.2031C230.429 26.9654 233.495 23.6629 237.448 21.2955C241.425 18.928 246.089 17.7443 251.44 17.7443C255.038 17.7443 258.388 18.3243 261.489 19.4844C264.614 20.6207 267.337 22.3371 269.657 24.6335C272.001 26.9299 273.824 29.8182 275.126 33.2983C276.428 36.7547 277.079 40.803 277.079 45.4432V49.598H231.021V40.223H262.839C262.839 38.045 262.365 36.1155 261.418 34.4347C260.471 32.7538 259.157 31.4399 257.477 30.4929C255.819 29.5223 253.89 29.0369 251.688 29.0369C249.392 29.0369 247.356 29.5696 245.58 30.6349C243.828 31.6766 242.455 33.0852 241.461 34.8608C240.467 36.6127 239.958 38.5658 239.934 40.7202V49.6335C239.934 52.3324 240.431 54.6643 241.425 56.6293C242.443 58.5942 243.876 60.1094 245.722 61.1747C247.569 62.2401 249.759 62.7727 252.292 62.7727C253.973 62.7727 255.512 62.536 256.908 62.0625C258.305 61.589 259.501 60.8788 260.495 59.9318C261.489 58.9848 262.247 57.8248 262.768 56.4517L276.759 57.375C276.049 60.7367 274.593 63.6723 272.391 66.1818C270.213 68.6676 267.396 70.6089 263.94 72.0057C260.507 73.3788 256.541 74.0653 252.043 74.0653Z" fill="#222222"/>
<path d="M313.016 73H287.235V0.272725H313.229C320.545 0.272725 326.842 1.72869 332.121 4.64062C337.401 7.52888 341.461 11.6837 344.302 17.1051C347.166 22.5265 348.599 29.0133 348.599 36.5653C348.599 44.1411 347.166 50.6515 344.302 56.0966C341.461 61.5417 337.377 65.7202 332.05 68.6321C326.747 71.544 320.403 73 313.016 73ZM302.612 59.8253H312.377C316.923 59.8253 320.746 59.0204 323.847 57.4105C326.972 55.777 329.316 53.2557 330.879 49.8466C332.465 46.4138 333.258 41.9867 333.258 36.5653C333.258 31.1913 332.465 26.7997 330.879 23.3906C329.316 19.9815 326.984 17.4721 323.883 15.8622C320.781 14.2524 316.958 13.4474 312.413 13.4474H302.612V59.8253ZM384.563 74.0653C378.952 74.0653 374.123 72.929 370.074 70.6562C366.05 68.3598 362.948 65.1165 360.77 60.9261C358.592 56.7121 357.503 51.7287 357.503 45.9759C357.503 40.3651 358.592 35.4408 360.77 31.2031C362.948 26.9654 366.014 23.6629 369.968 21.2955C373.945 18.928 378.609 17.7443 383.959 17.7443C387.558 17.7443 390.908 18.3243 394.009 19.4844C397.134 20.6207 399.856 22.3371 402.176 24.6335C404.52 26.9299 406.343 29.8182 407.645 33.2983C408.947 36.7547 409.598 40.803 409.598 45.4432V49.598H363.54V40.223H395.358C395.358 38.045 394.885 36.1155 393.938 34.4347C392.991 32.7538 391.677 31.4399 389.996 30.4929C388.339 29.5223 386.409 29.0369 384.208 29.0369C381.911 29.0369 379.875 29.5696 378.1 30.6349C376.348 31.6766 374.975 33.0852 373.98 34.8608C372.986 36.6127 372.477 38.5658 372.453 40.7202V49.6335C372.453 52.3324 372.951 54.6643 373.945 56.6293C374.963 58.5942 376.395 60.1094 378.242 61.1747C380.088 62.2401 382.278 62.7727 384.811 62.7727C386.492 62.7727 388.031 62.536 389.428 62.0625C390.825 61.589 392.02 60.8788 393.015 59.9318C394.009 58.9848 394.766 57.8248 395.287 56.4517L409.279 57.375C408.569 60.7367 407.113 63.6723 404.911 66.1818C402.733 68.6676 399.916 70.6089 396.459 72.0057C393.026 73.3788 389.061 74.0653 384.563 74.0653ZM444.115 74.0653C438.528 74.0653 433.722 72.8816 429.698 70.5142C425.697 68.1231 422.619 64.8087 420.465 60.571C418.334 56.3333 417.269 51.4564 417.269 45.9403C417.269 40.3532 418.346 35.4527 420.5 31.2386C422.678 27.0009 425.768 23.6984 429.769 21.331C433.77 18.9399 438.528 17.7443 444.044 17.7443C448.803 17.7443 452.97 18.6084 456.544 20.3366C460.119 22.0649 462.948 24.4915 465.032 27.6165C467.115 30.7415 468.263 34.411 468.476 38.625H454.201C453.798 35.9025 452.733 33.7126 451.005 32.0554C449.3 30.3745 447.063 29.5341 444.293 29.5341C441.949 29.5341 439.901 30.1733 438.15 31.4517C436.421 32.7064 435.072 34.5412 434.101 36.956C433.131 39.3707 432.645 42.2945 432.645 45.7273C432.645 49.2074 433.119 52.1667 434.066 54.6051C435.036 57.0436 436.398 58.902 438.15 60.1804C439.901 61.4588 441.949 62.098 444.293 62.098C446.021 62.098 447.572 61.7429 448.945 61.0327C450.342 60.3224 451.49 59.2926 452.39 57.9432C453.313 56.5701 453.917 54.9247 454.201 53.0071H468.476C468.239 57.1738 467.103 60.8433 465.067 64.0156C463.055 67.1643 460.273 69.6264 456.722 71.402C453.171 73.1776 448.969 74.0653 444.115 74.0653ZM502.807 74.0653C497.291 74.0653 492.52 72.8935 488.496 70.5497C484.495 68.1823 481.405 64.8916 479.227 60.6776C477.049 56.4399 475.96 51.5275 475.96 45.9403C475.96 40.3059 477.049 35.3816 479.227 31.1676C481.405 26.9299 484.495 23.6392 488.496 21.2955C492.52 18.928 497.291 17.7443 502.807 17.7443C508.323 17.7443 513.081 18.928 517.082 21.2955C521.107 23.6392 524.208 26.9299 526.386 31.1676C528.564 35.3816 529.653 40.3059 529.653 45.9403C529.653 51.5275 528.564 56.4399 526.386 60.6776C524.208 64.8916 521.107 68.1823 517.082 70.5497C513.081 72.8935 508.323 74.0653 502.807 74.0653ZM502.878 62.3466C505.387 62.3466 507.482 61.6364 509.163 60.2159C510.844 58.7718 512.111 56.8068 512.963 54.321C513.839 51.8352 514.277 49.0062 514.277 45.8338C514.277 42.6615 513.839 39.8324 512.963 37.3466C512.111 34.8608 510.844 32.8958 509.163 31.4517C507.482 30.0076 505.387 29.2855 502.878 29.2855C500.345 29.2855 498.214 30.0076 496.486 31.4517C494.781 32.8958 493.491 34.8608 492.615 37.3466C491.763 39.8324 491.337 42.6615 491.337 45.8338C491.337 49.0062 491.763 51.8352 492.615 54.321C493.491 56.8068 494.781 58.7718 496.486 60.2159C498.214 61.6364 500.345 62.3466 502.878 62.3466ZM539.49 73V18.4545H554.156V27.9716H554.724C555.719 24.5862 557.388 22.0294 559.732 20.3011C562.075 18.5492 564.774 17.6733 567.828 17.6733C568.586 17.6733 569.402 17.7206 570.278 17.8153C571.154 17.91 571.924 18.0402 572.587 18.206V31.6293C571.876 31.4162 570.894 31.2268 569.639 31.0611C568.384 30.8954 567.236 30.8125 566.195 30.8125C563.969 30.8125 561.981 31.2978 560.229 32.2685C558.5 33.2154 557.127 34.5412 556.109 36.2457C555.115 37.9503 554.618 39.9152 554.618 42.1406V73H539.49Z" fill="#F09D51"/>
</svg>
